<svg xmlns="http://www.w3.org/2000/svg" viewBox="0 0 378 378" role="img" aria-label="Dhiphos">
  <rect width="378" height="378" fill="#333333"/>
  <g transform="translate(-75.59055,-37.79528)">
    <path fill="#888888" d="m 326.36859,91.224055 -24.20593,57.958265 h 16.47019 a 16.528586,16.54029 0 0 1 15.2501,22.91807 L 298.5072,256.8061 h -42.23715 l -45.64221,109.29271 h 17.43341 a 37.275273,37.302138 0 0 0 34.39154,-22.91808 l 36.06741,-86.36168 h 6.01796 a 60.581385,56.524909 0 0 0 56.44664,-36.00234 l 39.08766,-93.59029 a 28.307878,26.412409 0 0 0 -26.3762,-36.002365 z"/>
    <path fill="#ffffff" d="m 202.76529,366.09881 24.20595,-57.95825 h -16.47019 a 16.528586,16.54029 0 0 1 -15.25009,-22.91807 l 35.37574,-84.70573 h 42.23715 L 318.50604,91.224055 h -17.43339 a 37.275273,37.302138 0 0 0 -34.39156,22.918095 l -36.0674,86.36168 h -6.01794 a 60.581385,56.524909 0 0 0 -56.44665,36.00234 l -39.0877,93.5903 a 28.307878,26.412409 0 0 0 26.37628,36.00234 z"/>
  </g>
</svg>
